# xmcd
#
# Track frame offsets:
#	150
#	25153
#	59806
#	83500
#	105801
#	131216
#	161749
#	200806
#	240602
#	295007
#
# Disc length: 4109 seconds
#
# Revision: 0
# Processed by: cddbd v1.5.2PL0 Copyright (c) Steve Scherf et al.
# Submitted via: audiograbber 1.83.01
#
DISCID=88100b0a
DTITLE=Driftin - Voll Chlore
DYEAR=2008
DGENRE=Blues
TTITLE0=Good Lines
TTITLE1=Balladesk
TTITLE2=BH-Blues
TTITLE3=Sweet Home Chicago
TTITLE4=Where´s my Mojo
TTITLE5=Born Under
TTITLE6=Come back home
TTITLE7=Riffifi
TTITLE8=Try to feel it
TTITLE9=Fürs Herz
EXTD=
EXTT0=
EXTT1=
EXTT2=
EXTT3=
EXTT4=
EXTT5=
EXTT6=
EXTT7=
EXTT8=
EXTT9=
PLAYORDER=
